PathFileType	4	(X/Y/Z)	C:/Users/opensim2020/Desktop/walking_exp_matlab/subject02_walking10_straight_04.trc																																																																																																																															
DataRate	CameraRate	NumFrames	NumMarkers	Units	OrigDataRate	OrigDataStartFrame	OrigNumFrames																																																																																																																											
100	100	6	43	mm	100	3182	260																																																																																																																											
Frame#	Time	LFHD			RFHD			LBHD			RBHD			C7			T10			CLAV			STRN			RBAK			LSHO			LUPA			LELB			LFRM			LWRA			LWRB			LFIN			RSHO			RUPA			RELB			RFRM			RWRA			RWRB			RFIN			LASI			RASI			LPSI			RPSI			LTHI			LKNE			LTIB			LANK			LHEE			LTOE			RTHI			RKNE			RTIB			RANK			RHEE			RTOE			*39			*40			*41			*42		
		X1	Y1	Z1	X2	Y2	Z2	X3	Y3	Z3	X4	Y4	Z4	X5	Y5	Z5	X6	Y6	Z6	X7	Y7	Z7	X8	Y8	Z8	X9	Y9	Z9	X10	Y10	Z10	X11	Y11	Z11	X12	Y12	Z12	X13	Y13	Z13	X14	Y14	Z14	X15	Y15	Z15	X16	Y16	Z16	X17	Y17	Z17	X18	Y18	Z18	X19	Y19	Z19	X20	Y20	Z20	X21	Y21	Z21	X22	Y22	Z22	X23	Y23	Z23	X24	Y24	Z24	X25	Y25	Z25	X26	Y26	Z26	X27	Y27	Z27	X28	Y28	Z28	X29	Y29	Z29	X30	Y30	Z30	X31	Y31	Z31	X32	Y32	Z32	X33	Y33	Z33	X34	Y34	Z34	X35	Y35	Z35	X36	Y36	Z36	X37	Y37	Z37	X38	Y38	Z38	X39	Y39	Z39	X40	Y40	Z40	X41	Y41	Z41	X42	Y42	Z42	X43	Y43	Z43
																																																																																																																																		
131	1.3	285.9216	1743.64587	1028.05347	288.71542	1710.73584	1167.41455	151.96373	1675.77051	1016.15967	142.23668	1641.59827	1156.20837	101.58372	1519.79541	1075.10315	54.5778	1246.35388	1070.61755	244.19011	1458.86816	1056.5426	300.31097	1287.21912	1057.45996	50.12905	1342.3407	1133.31555	170.78973	1507.74524	892.09613	199.16483	1318.97925	788.67487	239.81042	1185.43091	758.77502	308.59061	1071.49072	742.59845	412.02167	984.77026	775.66278	373.13431	967.1792	738.20062	423.12024	922.91809	733.53363	186.40248	1480.5343	1257.5553	165.0815	1286.87488	1336.43787	187.72089	1142.85168	1357.78784	232.85164	1030.55884	1375.3855	298.58795	913.22626	1354.55103	253.70967	902.1731	1387.20032	301.36066	846.69489	1388.71802	275.88446	983.8067	923.83081	289.47836	977.38818	1179.18555	71.07144	1028.26025	1014.40436	69.58543	1026.51111	1128.51904	182.43286	671.78015	890.74243	127.23265	474.38019	928.63776	46.54515	295.85284	938.26746	23.9988	74.57947	983.90576	-11.3774	49.47739	1038.21826	177.02063	32.42315	960.49255	285.172	684.0968	1271.87915	355.81473	488.5838	1248.8219	332.92389	302.79172	1258.86365	337.44727	109.3615	1233.323	320.51627	51.36895	1172.83801	487.79294	63.91174	1270.01501	189.27982	1803.75012	1126.43518	NaN	NaN	NaN	NaN	NaN	NaN	NaN	NaN	NaN
132	1.31	294.74857	1742.19385	1028.88794	297.46518	1709.40979	1168.72668	160.84966	1675.00964	1017.1283	150.7381	1640.68567	1156.78198	110.03413	1519.00378	1075.66553	62.64743	1245.59741	1071.10583	252.2596	1457.69019	1057.62585	308.23499	1286.05432	1058.41772	58.0671	1341.52051	1133.71326	179.5638	1507.01685	892.91022	209.28136	1318.23425	789.82996	250.00768	1185.01758	759.66766	319.44513	1071.74573	743.23083	423.72833	985.70673	775.73505	385.19357	967.87933	738.73767	434.98611	924.21588	733.41455	194.23987	1479.4165	1258.40601	171.92239	1285.76086	1336.94031	193.55879	1141.74292	1358.62561	237.71841	1028.9856	1376.54211	302.32028	910.8028	1355.68164	257.47198	900.39539	1388.12195	304.39014	844.50653	1389.99133	283.15494	982.55872	924.3653	297.28699	976.21997	1179.76733	78.72482	1027.7085	1015.46112	77.63821	1025.72314	1129.59692	187.31865	671.09711	891.18195	130.81659	474.24506	928.99573	48.4971	296.28601	938.65869	24.24872	75.13291	983.9325	-11.31706	50.18697	1038.5415	177.09764	32.37199	960.40546	291.40268	682.45734	1272.26147	363.41428	487.17255	1248.33752	349.49658	300.77676	1260.4425	362.56683	107.32116	1235.62939	347.55869	48.7468	1175.88354	515.12854	67.89949	1271.16687	198.35515	1802.59436	1127.21838	NaN	NaN	NaN	NaN	NaN	NaN	NaN	NaN	NaN
133	1.32	303.62335	1741.16736	1029.94788	306.31906	1707.92188	1170.24487	170.18091	1673.98401	1018.29535	159.37422	1639.91345	1157.59814	118.49221	1518.19263	1076.45605	70.73865	1244.81714	1071.8905	260.8924	1456.69543	1058.64221	316.27924	1284.87341	1059.4574	66.18211	1340.67639	1133.95117	188.32584	1506.23291	893.8255	218.20277	1317.5188	790.91638	260.20413	1184.56238	760.77106	330.63116	1071.71252	744.20892	435.3233	986.39941	776.02252	396.31284	968.2879	739.36639	446.35083	924.87646	733.51599	202.18053	1478.06384	1259.32922	178.77493	1284.65747	1337.66528	199.66188	1140.5332	1359.0791	242.51393	1027.4353	1377.73865	306.26801	908.84503	1357.08154	260.99643	898.79803	1389.49377	307.35269	842.44434	1391.33875	290.44296	981.38245	924.9021	305.66113	975.11798	1180.26514	86.35652	1027.17102	1016.78217	85.88349	1024.92847	1130.96643	192.14584	670.5415	891.73181	134.44691	474.03479	929.43274	50.61311	296.84479	938.92682	24.53176	75.74051	983.97424	-10.90815	50.84498	1038.67017	177.39929	32.42065	960.01434	297.49857	680.67084	1272.87646	370.85574	485.88641	1247.91211	365.23239	299.29279	1261.67004	386.58487	106.17759	1237.90002	373.40771	46.74454	1178.48608	541.38898	72.38835	1271.84021	207.56334	1801.79138	1128.66089	NaN	NaN	NaN	NaN	NaN	NaN	NaN	NaN	NaN
134	1.33	312.8367	1739.94006	1031.38391	314.90771	1706.71387	1171.55359	178.87239	1673.56531	1019.26752	167.92778	1638.99902	1158.69507	126.93054	1517.33838	1077.42505	79.0167	1243.95959	1072.77502	269.11307	1455.47693	1059.88062	324.4501	1283.70679	1060.5686	74.19953	1339.69946	1134.67261	197.09871	1505.34143	894.90802	227.81	1316.42297	792.35858	269.96906	1183.8999	762.02002	340.89282	1071.44324	745.38098	445.83405	986.58008	776.3996	406.93503	968.13928	740.1322	457.51025	925.49969	733.74591	209.94547	1477.16809	1260.52356	185.71289	1283.51086	1338.51746	205.69685	1139.44678	1360.12817	247.57762	1026.02515	1378.37378	310.23529	906.7934	1358.39478	264.8895	897.00342	1390.5896	310.49139	840.21283	1392.78613	297.89383	980.09216	925.3125	315.46085	974.3606	1180.58435	94.23418	1026.42334	1018.24146	94.28072	1024.10876	1132.57629	197.28273	669.79352	892.44202	138.16618	473.84286	929.99371	52.74424	297.45917	939.19934	24.72942	76.4487	984.00928	-10.77583	51.79938	1038.64832	177.13483	32.48038	960.01984	303.57755	678.9314	1273.69873	378.3299	484.68933	1247.72351	380.19119	298.22226	1262.63916	409.69495	105.70969	1240.02966	397.89777	45.8829	1181.22363	566.52673	77.50664	1271.98206	216.75975	1800.87219	1130.11963	NaN	NaN	NaN	NaN	NaN	NaN	NaN	NaN	NaN
135	1.34	322.008	1738.7572	1032.93396	323.58051	1705.43347	1173.13196	187.79308	1672.35303	1020.38635	176.44472	1638.07324	1159.90088	135.50853	1516.40198	1078.49854	87.31454	1243.0105	1073.90125	277.52783	1454.37744	1061.19666	332.65646	1282.53247	1061.76501	82.43613	1338.73657	1135.13525	205.95697	1504.46643	896.04773	237.06085	1315.69214	793.62836	279.61816	1183.13428	763.50928	350.97546	1070.93396	746.52411	456.49219	986.71057	776.86401	417.34988	968.00934	741.1828	468.28156	925.92261	733.90204	217.98079	1475.85999	1261.77161	192.77242	1282.30396	1339.3927	212.02931	1138.11157	1360.69409	252.72169	1024.39246	1379.72144	314.05368	904.38098	1359.83655	268.61594	895.43951	1392.1814	313.73163	837.95221	1394.25061	305.21426	978.78754	925.78119	323.98615	973.06036	1181.06628	102.10387	1025.57239	1019.96423	102.93175	1023.28375	1134.43726	202.35298	669.38629	892.91998	141.98312	473.69223	930.60126	54.86079	298.1405	939.72882	24.99262	77.3198	984.08112	-10.85899	52.8135	1038.70728	177.15689	32.456	959.90503	309.39252	677.3327	1274.40149	385.80762	483.47791	1247.69287	394.45963	297.34607	1263.60876	431.46899	105.7118	1241.97351	420.93457	45.14301	1183.78247	589.59381	82.88824	1271.70679	225.56514	1799.69824	1131.20508	NaN	NaN	NaN	NaN	NaN	NaN	NaN	NaN	NaN
136	1.35	331.13507	1737.65955	1034.79407	332.23831	1704.2063	1174.73083	197.0392	1671.67151	1021.75159	185.04254	1637.09692	1161.14941	144.05103	1515.47803	1079.65088	95.71368	1242.02356	1075.23853	286.3649	1453.31921	1062.48364	340.98926	1281.31836	1062.99719	90.72076	1337.74927	1135.89954	214.87338	1503.50769	897.26642	246.05945	1314.58118	795.21838	289.08481	1182.15027	765.14087	360.68396	1070.21521	747.86469	466.83789	986.59979	777.4715	427.61224	967.5498	742.37543	478.21582	925.36023	734.68304	226.08109	1474.39478	1263.09424	199.90781	1281.08276	1340.45349	218.2403	1136.91504	1361.93213	257.81927	1022.6817	1380.60815	318.14175	902.06763	1361.32153	272.71948	893.60083	1393.48877	316.95389	835.58722	1395.74707	312.6514	977.50177	926.33746	332.57068	971.59106	1181.4873	110.11367	1024.60144	1021.86792	111.6833	1022.39032	1136.44531	207.41232	668.8277	893.62659	145.92946	473.58856	931.20868	57.05719	298.90466	940.48425	25.34489	78.14425	984.09833	-10.33986	53.84274	1038.88574	177.1703	32.40019	959.79156	316.27515	675.8028	1275.95203	393.32101	482.0791	1247.54358	407.98972	296.59756	1264.55151	451.6145	106.01677	1243.8103	442.45782	44.41019	1185.97437	611.15405	88.20766	1270.89783	234.46938	1798.60999	1132.46082	NaN	NaN	NaN	NaN	NaN	NaN	NaN	NaN	NaN
